# xmcd
#
# Track frame offsets:
#	150
#	19624
#	36958
#	56832
#	78456
#	91191
#	109205
#	125035
#	137867
#	156369
#	170836
#	188235
#	209612
#	225203
#	243362
#
# Disc length: 3551 seconds
#
# Revision: 4
# Processed by: cddbd v1.5.2PL0 Copyright (c) Steve Scherf et al.
# Submitted via: EasyCDDAExtractor 15.3.0.1
#
DISCID=d10ddd0f
DTITLE=Tiziano Ferro - 111 Ciento Once
DYEAR=2003
DGENRE=Latin
TTITLE0=Ciento Once
TTITLE1=Perverso
TTITLE2=Tardes Negras
TTITLE3=Ti Voglio Bene
TTITLE4=En El Baño Al Aeropuerto
TTITLE5=No Me Lo Puedo Explicar
TTITLE6=Mi Abuela
TTITLE7=10 Piegamenti!
TTITLE8=Temple Bar
TTITLE9=Giugno '84
TTITLE10=Eri Come L'oro Ora Sei Come Loro
TTITLE11=Quien No Tiene Talento Enseña
TTITLE12=13 Años
TTITLE13=Perdona (Bonus Track)
TTITLE14=Alucinado (Bonus Track)
EXTD=YEAR: 2003 ID3G: 86
EXTT0=
EXTT1=
EXTT2=
EXTT3=
EXTT4=
EXTT5=
EXTT6=
EXTT7=
EXTT8=
EXTT9=
EXTT10=
EXTT11=
EXTT12=
EXTT13=
EXTT14=
PLAYORDER=
